<svg
        xmlns="http://www.w3.org/2000/svg"
        xmlns:xlink="http://www.w3.org/1999/xlink"
        width="24pt" height="24pt"
        viewBox="0 0 24 24" version="1.1">
        <path style=" stroke:none;fill-rule:evenodd;fill:rgb(100%,100%,100%);fill-opacity:1;" d="M 23.949219 18.597656 C 23.882812 18.390625 23.453125 18.089844 22.65625 17.691406 C 22.441406 17.570312 22.132812 17.398438 21.734375 17.183594 C 21.335938 16.964844 20.976562 16.765625 20.652344 16.585938 C 20.328125 16.402344 20.023438 16.226562 19.742188 16.058594 C 19.695312 16.023438 19.550781 15.921875 19.3125 15.757812 C 19.074219 15.59375 18.875 15.472656 18.707031 15.390625 C 18.542969 15.3125 18.382812 15.273438 18.222656 15.273438 C 17.996094 15.273438 17.710938 15.433594 17.371094 15.757812 C 17.03125 16.082031 16.71875 16.433594 16.433594 16.816406 C 16.148438 17.195312 15.847656 17.546875 15.53125 17.871094 C 15.210938 18.195312 14.949219 18.359375 14.746094 18.359375 C 14.644531 18.359375 14.515625 18.332031 14.363281 18.273438 C 14.207031 18.21875 14.089844 18.167969 14.011719 18.128906 C 13.933594 18.089844 13.796875 18.007812 13.601562 17.890625 C 13.410156 17.769531 13.300781 17.703125 13.277344 17.691406 C 11.722656 16.828125 10.386719 15.839844 9.273438 14.726562 C 8.160156 13.613281 7.167969 12.277344 6.304688 10.71875 C 6.292969 10.699219 6.230469 10.589844 6.109375 10.394531 C 5.992188 10.203125 5.910156 10.066406 5.871094 9.988281 C 5.832031 9.90625 5.78125 9.789062 5.726562 9.636719 C 5.667969 9.484375 5.640625 9.355469 5.640625 9.253906 C 5.640625 9.050781 5.804688 8.789062 6.125 8.46875 C 6.449219 8.152344 6.804688 7.851562 7.183594 7.566406 C 7.566406 7.28125 7.917969 6.96875 8.242188 6.628906 C 8.566406 6.289062 8.726562 6.003906 8.726562 5.777344 C 8.726562 5.617188 8.6875 5.457031 8.609375 5.289062 C 8.527344 5.125 8.40625 4.925781 8.242188 4.683594 C 8.078125 4.445312 7.976562 4.304688 7.941406 4.257812 C 7.773438 3.976562 7.597656 3.671875 7.414062 3.347656 C 7.230469 3.023438 7.035156 2.660156 6.816406 2.265625 C 6.601562 1.867188 6.429688 1.558594 6.304688 1.34375 C 5.910156 0.546875 5.605469 0.117188 5.402344 0.046875 C 5.324219 0.015625 5.203125 -0.00390625 5.042969 -0.00390625 C 4.738281 -0.00390625 4.335938 0.0546875 3.84375 0.167969 C 3.347656 0.28125 2.957031 0.402344 2.675781 0.523438 C 2.105469 0.765625 1.503906 1.457031 0.867188 2.605469 C 0.289062 3.671875 -0.00390625 4.730469 -0.00390625 5.777344 C -0.00390625 6.082031 0.0195312 6.382812 0.0585938 6.671875 C 0.0976562 6.960938 0.167969 7.289062 0.269531 7.652344 C 0.371094 8.015625 0.457031 8.285156 0.519531 8.460938 C 0.582031 8.636719 0.695312 8.953125 0.867188 9.40625 C 1.039062 9.863281 1.140625 10.140625 1.175781 10.242188 C 1.570312 11.355469 2.042969 12.351562 2.589844 13.226562 C 3.488281 14.679688 4.710938 16.183594 6.261719 17.738281 C 7.8125 19.289062 9.316406 20.511719 10.773438 21.410156 C 11.648438 21.957031 12.640625 22.425781 13.757812 22.824219 C 13.859375 22.859375 14.136719 22.960938 14.589844 23.132812 C 15.046875 23.304688 15.363281 23.417969 15.539062 23.484375 C 15.714844 23.546875 15.984375 23.628906 16.347656 23.730469 C 16.710938 23.832031 17.039062 23.902344 17.328125 23.941406 C 17.617188 23.980469 17.917969 24.003906 18.222656 24.003906 C 19.269531 24.003906 20.324219 23.710938 21.394531 23.132812 C 22.542969 22.496094 23.234375 21.894531 23.472656 21.324219 C 23.597656 21.042969 23.71875 20.652344 23.832031 20.15625 C 23.945312 19.664062 24.003906 19.261719 24.003906 18.957031 C 24.003906 18.796875 23.984375 18.675781 23.949219 18.597656 Z M 23.949219 18.597656 "/>
</svg>
