<svg 
 xmlns="http://www.w3.org/2000/svg"
 xmlns:xlink="http://www.w3.org/1999/xlink"
 width="20px" height="15px"  viewBox="0 0 20 15">
<path fill-rule="evenodd"  fill="rgb(81, 211, 121)"
 d="M18.663,15.002 L10.000,15.002 L1.336,15.002 C0.603,15.002 0.003,14.358 0.003,13.572 L0.003,3.057 C0.003,2.271 0.481,2.016 1.066,2.491 L8.936,8.900 C9.230,9.137 9.616,9.253 10.000,9.247 C10.384,9.253 10.770,9.137 11.064,8.900 L18.934,2.491 C19.518,2.016 19.996,2.271 19.996,3.057 L19.996,13.572 C19.996,14.358 19.396,15.002 18.663,15.002 ZM11.213,6.995 C10.886,7.273 10.436,7.396 10.000,7.372 C9.562,7.396 9.112,7.273 8.786,6.995 L1.584,0.876 C1.009,0.389 1.139,-0.010 1.872,-0.010 L10.000,-0.010 L18.128,-0.010 C18.860,-0.010 18.991,0.389 18.414,0.876 L11.213,6.995 Z"/>
</svg>